<?xml version="1.0" standalone="no"?>
<!DOCTYPE svg PUBLIC "-//W3C//DTD SVG 20010904//EN"
 "http://www.w3.org/TR/2001/REC-SVG-20010904/DTD/svg10.dtd">
<svg version="1.0" xmlns="http://www.w3.org/2000/svg"
 width="1474.000000pt" height="1023.000000pt" viewBox="0 0 1474.000000 1023.000000"
 preserveAspectRatio="xMidYMid meet">

<g transform="translate(0.000000,1023.000000) scale(0.100000,-0.100000)"
fill="#000000" stroke="none">
<path d="M6900 9829 c-817 -65 -1623 -343 -2305 -794 -1107 -732 -1864 -1875
-2094 -3160 -60 -336 -66 -413 -66 -850 0 -398 2 -427 41 -705 145 -1022 652
-2009 1405 -2735 830 -800 1856 -1266 3009 -1367 183 -16 589 -15 785 1 1166
96 2237 587 3046 1394 757 755 1232 1699 1378 2742 58 414 58 912 0 1335 -215
1558 -1201 2926 -2619 3635 -536 269 -1083 428 -1705 495 -132 15 -730 21
-875 9z m870 -74 c576 -58 1122 -213 1635 -465 603 -296 1111 -690 1550 -1204
617 -721 993 -1600 1102 -2576 21 -195 24 -742 5 -930 -107 -1027 -500 -1933
-1163 -2685 -125 -142 -386 -398 -514 -504 -750 -623 -1621 -992 -2596 -1098
-198 -22 -783 -24 -969 -5 -799 85 -1514 336 -2165 760 -818 533 -1463 1314
-1823 2208 -419 1039 -455 2197 -103 3254 74 222 134 366 246 595 235 479 500
850 888 1244 607 616 1354 1049 2195 1271 305 81 617 130 992 154 117 8 572
-4 720 -19z"/>
<path d="M7020 9664 c-239 -20 -313 -28 -430 -45 -1173 -175 -2228 -782 -2970
-1708 -471 -587 -795 -1290 -934 -2031 -59 -312 -70 -445 -70 -845 0 -367 5
-457 45 -715 148 -972 622 -1894 1330 -2586 800 -781 1805 -1240 2911 -1330
241 -19 682 -15 900 10 1090 122 2075 602 2838 1382 626 640 1042 1417 1225
2289 67 323 90 558 90 940 0 314 -9 441 -46 690 -145 972 -600 1874 -1299
2575 -372 374 -758 653 -1224 887 -500 251 -1039 409 -1599 469 -133 14 -664
27 -767 18z m160 -220 c8 -3 23 -18 32 -34 16 -28 16 -29 -11 -38 -14 -5 -36
-20 -48 -33 -11 -13 -49 -55 -83 -94 -33 -38 -72 -82 -86 -97 -36 -40 -31 -48
37 -48 63 0 99 12 99 33 0 7 6 21 13 31 12 16 17 17 38 5 13 -7 31 -13 39 -14
28 0 22 -33 -10 -57 -32 -23 -66 -75 -56 -85 3 -3 17 2 30 11 19 12 27 13 32
4 4 -7 2 -14 -4 -16 -7 -2 -12 -9 -12 -16 0 -7 -8 -21 -19 -30 -27 -25 -32
-65 -15 -137 17 -74 12 -109 -15 -109 -28 0 -46 22 -61 75 -7 26 -19 49 -26
52 -16 6 -63 -23 -95 -60 -37 -42 -49 -29 -49 53 0 62 2 71 23 81 12 6 32 20
43 31 l22 19 6 -35 c5 -25 12 -36 24 -36 28 0 39 13 52 58 9 37 9 47 -5 69
-16 24 -20 25 -98 21 -45 -3 -90 -8 -99 -12 -15 -7 -18 -3 -18 20 0 33 37 91
62 97 10 3 22 16 27 29 5 12 32 47 60 77 28 29 51 57 51 62 0 5 6 9 13 9 16 0
37 41 37 72 0 24 30 59 45 52 6 -2 17 -6 25 -10z m360 -48 c0 -8 12 -21 26
-31 21 -14 24 -21 19 -43 -8 -28 -12 -64 -19 -142 -3 -37 1 -53 26 -89 38 -56
34 -80 -19 -109 l-41 -23 -7 -84 c-4 -49 -13 -89 -20 -95 -8 -6 -16 -28 -20
-48 -3 -20 -19 -75 -35 -122 l-28 -85 -1 208 c-1 114 -3 207 -5 207 -14 0
-114 -51 -125 -64 -7 -9 -19 -16 -26 -16 -39 0 -22 99 28 165 40 52 43 65 26
114 -10 28 -8 39 11 75 19 39 20 47 9 85 -7 22 -9 44 -6 48 4 3 24 0 46 -7 42
-14 61 -8 61 18 1 10 18 26 43 37 45 22 57 22 57 1z m2117 -612 c-3 -62 -10
-90 -22 -105 -37 -40 -105 -12 -105 43 0 22 14 44 57 89 31 32 60 59 66 59 6
0 8 -32 4 -86z m-4652 -14 c4 -6 24 -22 45 -35 23 -14 60 -56 88 -97 27 -40
66 -93 86 -116 20 -24 36 -52 36 -62 0 -10 6 -25 13 -32 7 -7 30 -38 50 -68
20 -30 48 -66 62 -80 14 -14 25 -31 25 -37 0 -7 8 -18 19 -25 26 -18 61 -79
61 -105 0 -12 -11 -30 -26 -40 -14 -10 -35 -28 -47 -40 -11 -13 -28 -23 -37
-23 -9 0 -24 -8 -34 -19 -9 -10 -36 -26 -59 -36 -23 -9 -50 -21 -59 -26 -56
-29 -243 5 -295 54 -30 27 -30 19 3 -121 21 -87 24 -116 15 -125 -8 -8 -16 -9
-29 -1 -20 13 -130 173 -131 191 -1 7 -17 37 -36 67 -19 30 -35 60 -35 66 0 7
-9 23 -20 37 -11 14 -20 34 -20 44 0 11 -4 19 -10 19 -5 0 -16 15 -24 34 -8
18 -19 37 -25 40 -15 10 -14 49 1 44 7 -3 22 -22 33 -44 11 -21 22 -41 25 -44
17 -16 89 -144 109 -195 13 -33 32 -68 43 -78 10 -10 18 -24 18 -32 0 -17 30
-55 44 -55 12 0 -1 76 -23 125 -10 23 -34 62 -54 88 -19 26 -39 57 -43 69 -4
12 -17 31 -30 41 -14 10 -22 23 -18 28 3 5 36 -21 72 -59 71 -73 116 -108 171
-135 52 -26 64 -23 58 16 -3 17 2 58 10 90 9 32 14 59 12 61 -2 3 -16 2 -31
-1 -24 -5 -28 -10 -28 -38 0 -35 -13 -45 -60 -45 -35 0 -54 22 -47 57 7 37 0
51 -35 69 -27 14 -30 19 -25 51 5 29 2 39 -21 59 -15 13 -35 24 -44 24 -13 0
-18 11 -20 43 -2 24 -7 40 -13 37 -6 -3 -9 -47 -7 -110 3 -104 3 -105 -15 -82
-37 45 -47 106 -33 186 8 39 13 80 11 91 -4 42 49 133 124 209 l74 76 60 0
c33 0 63 -5 66 -10z m4817 -87 c3 -35 6 -39 48 -52 25 -8 52 -16 60 -19 15 -5
-78 -22 -140 -25 -35 -2 -35 -2 -38 44 -3 41 1 50 24 68 37 29 42 27 46 -16z
m-352 -112 c0 -20 32 -37 50 -26 5 3 59 -1 120 -10 131 -18 253 -20 283 -4 11
7 29 20 40 30 30 28 57 6 57 -48 0 -23 -3 -48 -6 -57 -8 -20 -44 -21 -70 -1
-12 9 -43 14 -86 15 l-66 0 5 -58 c7 -79 -19 -132 -85 -170 -30 -17 -72 -5
-72 19 0 15 5 18 24 13 35 -8 72 36 80 96 4 26 4 54 1 62 -9 23 -58 46 -113
54 -29 4 -55 10 -57 14 -9 14 -98 -10 -130 -34 -43 -33 -154 -71 -168 -57 -12
12 13 74 40 101 8 8 23 30 34 48 17 29 23 32 69 32 43 0 50 -3 50 -19z m11
-196 c66 -23 119 -79 103 -108 -17 -31 -49 -57 -69 -57 -30 0 -57 -33 -73 -88
-24 -84 -22 -96 18 -102 25 -4 36 -11 39 -25 2 -11 9 -24 17 -28 17 -10 18
-37 2 -37 -15 0 -63 26 -102 54 -26 18 -26 18 -77 -14 -27 -18 -68 -36 -90
-40 -34 -6 -46 -3 -79 19 -51 34 -99 99 -100 134 0 27 1 26 53 -25 94 -93 156
-109 194 -52 17 26 16 27 -11 50 -15 13 -34 24 -42 24 -8 0 -14 4 -14 9 0 5
-16 16 -35 25 -48 23 -135 109 -135 133 0 13 9 23 23 27 38 10 47 7 47 -18 0
-28 35 -65 111 -116 64 -44 116 -54 133 -27 9 14 7 21 -6 31 -28 21 -22 35 32
68 30 18 50 38 50 49 0 25 -48 79 -71 79 -12 0 -19 7 -19 19 0 33 35 39 101
16z m-1824 -59 c540 -71 1034 -253 1467 -540 830 -552 1352 -1388 1486 -2381
18 -133 24 -537 11 -697 -139 -1632 -1449 -2930 -3099 -3069 -176 -15 -571 -6
-724 15 -641 91 -1188 327 -1695 732 -133 106 -390 365 -497 499 -403 508
-634 1053 -723 1705 -25 189 -25 619 0 810 82 608 289 1120 646 1599 216 289
510 569 811 771 499 335 1039 521 1660 574 105 9 542 -3 657 -18z m3393 -1103
c11 -21 26 -46 33 -55 17 -25 1 -47 -46 -63 -42 -14 -75 -48 -83 -87 -8 -35
-78 -83 -118 -80 -40 3 -59 21 -51 46 19 60 8 99 -15 56 -6 -11 -23 -26 -38
-34 -15 -8 -41 -28 -58 -45 -40 -39 -72 -51 -140 -51 -38 0 -69 -7 -104 -25
-27 -14 -53 -25 -58 -25 -4 0 -15 13 -25 29 -16 27 -14 57 3 71 3 3 18 31 33
63 25 54 29 57 62 57 20 0 50 8 68 17 18 9 41 18 52 19 11 1 49 10 85 18 36 9
83 16 105 16 34 0 43 -5 58 -31 9 -17 17 -42 17 -55 0 -48 63 -22 104 42 25
39 27 49 17 70 -6 14 -11 31 -11 39 0 23 30 45 61 45 23 0 33 -7 49 -37z
m-7583 -205 c10 -17 33 -119 40 -180 3 -26 11 -52 19 -59 8 -6 14 -17 14 -24
0 -18 32 -28 42 -13 4 7 8 23 8 36 0 28 17 62 30 62 6 0 10 -13 10 -29 0 -17
4 -32 9 -36 6 -3 9 -30 7 -60 -2 -40 2 -59 14 -73 9 -10 19 -24 22 -32 2 -7
20 -19 39 -25 19 -7 39 -22 46 -37 15 -31 115 -118 136 -118 7 0 22 -9 32 -20
10 -11 24 -20 32 -20 7 0 13 -5 13 -11 0 -22 -187 22 -226 52 -6 5 -33 10 -60
11 -42 3 -49 0 -48 -15 2 -21 -40 -52 -61 -44 -12 5 -13 10 0 34 23 43 19 72
-10 79 -13 3 -29 12 -36 20 -6 8 -24 14 -40 14 -38 0 -55 -31 -39 -71 7 -16
10 -38 7 -49 -6 -23 5 -33 56 -49 33 -11 37 -16 37 -47 0 -48 -41 -87 -84 -80
-17 2 -58 8 -91 12 -65 7 -93 18 -112 43 -27 35 -16 41 65 38 l77 -2 0 45 c-1
25 -11 66 -22 90 -24 50 -40 105 -42 148 -1 7 -35 29 -76 49 -62 29 -84 35
-119 31 -42 -5 -44 -4 -60 29 -19 41 -8 73 27 73 12 0 37 14 56 30 37 34 45
33 119 -6 25 -13 46 -23 48 -21 2 1 8 34 14 72 13 82 32 128 63 150 26 18 33
19 44 3z m7884 -68 c1 -5 3 -22 5 -37 1 -16 6 -43 10 -61 12 -59 -28 -81 -71
-38 -13 14 -32 26 -41 28 -31 6 -26 27 10 44 20 10 40 29 47 46 11 27 38 39
40 18z m-214 -25 c7 -19 -23 -44 -54 -45 -35 0 -35 -15 0 -35 18 -10 48 -31
67 -47 19 -15 39 -28 45 -28 13 0 75 -55 75 -66 0 -5 9 -15 20 -22 26 -16 26
-66 1 -91 -11 -11 -40 -23 -65 -26 -40 -6 -53 -3 -111 29 -36 20 -76 36 -89
36 -16 0 -31 12 -50 40 -18 28 -37 43 -66 51 -22 7 -43 10 -45 7 -11 -11 19
-57 44 -68 14 -6 45 -28 68 -49 42 -38 42 -39 23 -56 -18 -17 -21 -17 -53 3
-30 17 -38 18 -64 7 -16 -7 -33 -20 -36 -29 -4 -9 -18 -16 -32 -16 -29 0 -125
-45 -125 -59 0 -12 50 -100 60 -106 4 -3 22 0 40 6 24 9 34 9 43 0 9 -10 6
-18 -15 -36 -16 -14 -28 -35 -30 -55 -2 -18 -11 -38 -21 -44 -23 -14 -38 5
-61 78 -13 42 -28 63 -62 91 -24 20 -44 42 -44 49 0 7 22 34 50 60 38 35 57
46 82 46 41 0 78 10 78 20 0 4 -17 10 -38 12 -48 7 -150 56 -163 79 -7 14 -3
20 26 29 19 6 56 11 82 10 74 -3 83 -1 83 14 0 7 12 22 27 31 23 15 31 16 57
6 52 -21 60 -19 66 17 6 37 19 45 31 20 5 -10 14 -26 19 -35 6 -10 14 -27 19
-38 5 -12 31 -32 57 -45 27 -14 61 -33 76 -44 22 -15 33 -17 60 -10 62 18 41
69 -46 112 -24 12 -49 29 -56 37 -6 7 -26 17 -43 21 -18 3 -35 11 -38 16 -4 6
-34 11 -67 13 -33 1 -65 6 -71 9 -28 18 3 74 56 101 40 21 181 21 190 0z
m-7460 -3168 c71 -38 107 -103 97 -177 -6 -45 -5 -48 20 -54 16 -4 23 -11 20
-20 -3 -8 11 -47 31 -87 21 -41 31 -68 24 -61 -22 21 -71 13 -152 -26 l-77
-37 25 -52 c13 -29 28 -53 32 -53 4 0 47 17 95 37 77 33 88 40 94 67 7 29 9
26 50 -62 24 -51 75 -144 114 -206 38 -63 70 -119 70 -126 0 -6 -34 -77 -75
-157 -41 -81 -73 -148 -71 -151 5 -5 36 16 144 96 69 52 74 57 68 86 -5 30 -5
30 40 -19 83 -93 215 -265 210 -274 -4 -5 -30 -29 -58 -53 -46 -38 -50 -39
-31 -13 37 53 37 84 3 139 l-31 48 -22 -19 c-12 -11 -48 -41 -79 -67 -36 -30
-55 -53 -51 -62 8 -21 61 -17 102 8 l36 22 -20 -23 c-37 -42 -186 -164 -192
-157 -4 3 8 21 25 39 31 32 43 79 22 92 -13 8 -160 -116 -160 -136 0 -23 44
-67 75 -75 14 -3 45 -4 68 -1 l42 6 -45 -39 c-25 -22 -49 -39 -55 -39 -12 0
-217 240 -211 247 2 2 14 -2 26 -8 26 -14 31 -11 222 143 80 64 148 126 151
137 7 26 -25 54 -53 45 -13 -4 -105 -63 -206 -131 -101 -69 -184 -120 -184
-115 0 6 34 81 76 168 109 226 126 265 112 257 -7 -4 -80 -53 -161 -107 -143
-96 -149 -101 -143 -128 3 -16 4 -29 1 -29 -7 0 -75 93 -71 97 2 3 14 -1 26
-7 16 -9 29 -9 46 -1 50 23 344 234 349 252 8 23 -11 59 -30 59 -11 0 -379
-201 -392 -214 -2 -2 -4 -15 -5 -29 -3 -31 -3 -31 -56 55 -42 68 -57 114 -23
69 10 -13 25 -22 32 -19 8 4 97 53 199 111 192 108 210 125 174 162 -9 9 -24
14 -33 12 -34 -11 -379 -173 -394 -185 -8 -7 -13 -22 -10 -35 5 -27 -62 98
-71 133 -6 21 -5 22 4 8 16 -25 28 -23 119 22 44 22 85 40 91 40 5 0 10 6 10
14 0 21 -40 106 -50 106 -13 0 -173 -70 -188 -82 -7 -7 -12 -22 -9 -35 2 -13
3 -23 1 -23 -1 0 -21 35 -43 77 -43 82 -55 127 -22 84 22 -29 13 -31 245 69
154 68 206 98 206 120 0 13 -15 12 -80 -5 -75 -20 -80 -19 -39 9 45 31 76 96
63 134 -13 37 -78 72 -134 72 -79 0 -242 -64 -292 -115 -52 -52 -29 -130 47
-161 25 -11 45 -22 45 -26 0 -15 -41 -8 -81 13 -79 40 -100 147 -47 240 24 43
94 93 161 115 56 18 191 13 234 -9z m6927 -763 c47 -26 77 -55 40 -39 -34 15
-92 17 -127 6 -38 -13 -52 -44 -34 -78 27 -51 73 -55 168 -17 77 32 162 30
207 -3 88 -65 95 -195 12 -236 -13 -7 -27 -22 -30 -34 -5 -21 -8 -20 -78 24
-40 25 -71 47 -70 48 2 2 31 -4 65 -13 61 -16 63 -16 109 6 45 22 46 24 41 58
-12 75 -97 96 -199 49 -64 -30 -82 -31 -151 -5 -80 30 -100 56 -101 132 -1 60
0 62 34 85 19 12 40 27 45 32 14 14 18 14 69 -15z m-160 -225 c32 -23 55 -43
53 -46 -3 -2 -25 2 -50 11 -57 19 -78 13 -115 -33 l-30 -38 80 -61 c44 -34 84
-59 89 -56 19 11 8 63 -18 95 -16 18 -21 29 -13 24 26 -16 160 -128 157 -131
-2 -2 -19 2 -40 8 -28 9 -40 8 -52 -2 -8 -7 -15 -16 -15 -20 0 -14 147 -120
167 -120 55 0 83 111 43 174 -30 50 -13 45 44 -13 33 -33 46 -53 40 -63 -14
-23 -164 -207 -174 -213 -5 -3 -7 0 -4 8 3 10 -17 32 -58 63 -35 27 -111 88
-170 136 -113 91 -143 107 -161 89 -8 -8 3 -26 43 -66 30 -30 52 -57 49 -60
-3 -2 -28 7 -55 22 -57 30 -91 27 -130 -12 -18 -18 -24 -35 -24 -66 0 -104
152 -259 271 -278 47 -8 54 -6 81 18 25 22 31 37 37 86 7 64 16 63 26 -1 5
-33 2 -46 -24 -84 -36 -55 -75 -79 -139 -87 -96 -11 -224 74 -282 187 -30 58
-37 147 -17 187 25 47 72 90 108 97 26 5 30 10 26 27 -4 16 18 50 91 140 53
65 100 119 103 119 3 0 32 -18 63 -41z m-5882 -387 c15 -14 30 -38 33 -53 5
-23 12 -29 33 -29 25 0 24 -3 -28 -55 -30 -30 -58 -55 -62 -55 -5 0 1 18 12
40 26 50 25 90 -1 124 -25 31 -61 34 -89 6 -28 -28 -35 -67 -22 -117 20 -72
15 -138 -12 -182 -36 -57 -78 -87 -131 -94 -73 -10 -98 7 -134 96 -8 20 -18
27 -37 27 -25 0 -23 3 26 48 75 68 85 71 61 23 -12 -22 -21 -58 -21 -80 0 -32
6 -44 31 -65 35 -29 39 -30 72 -15 37 17 49 65 41 167 -4 60 -3 101 6 128 13
43 72 102 110 110 14 3 30 7 35 8 20 5 51 -7 77 -32z m5394 -77 c-10 -40 14
-73 169 -240 80 -86 143 -159 141 -164 -3 -4 -107 27 -232 71 -124 44 -228 78
-230 76 -4 -5 182 -223 215 -252 13 -12 36 -20 56 -20 19 0 33 -1 32 -1 -1 -1
-23 -21 -50 -45 -48 -43 -69 -49 -46 -12 10 15 10 26 2 44 -17 36 -254 302
-277 311 -11 4 -31 5 -43 2 -13 -3 -23 -2 -23 3 0 12 85 72 101 72 7 0 85 -23
172 -51 87 -27 161 -48 164 -45 3 2 -37 48 -88 101 -86 89 -96 96 -124 91
l-30 -6 45 45 c24 25 46 45 48 45 2 0 1 -11 -2 -25z m-5199 -112 c58 -49 112
-94 121 -100 13 -11 9 -19 -34 -65 -60 -66 -68 -69 -43 -21 28 55 24 77 -23
121 l-41 40 -61 -70 c-34 -39 -61 -78 -61 -87 0 -28 51 -25 91 6 53 40 31 6
-48 -77 -35 -36 -60 -61 -55 -56 12 17 8 83 -6 89 -20 8 -137 -126 -137 -157
0 -55 118 -80 177 -38 17 12 34 22 37 22 18 0 0 -24 -54 -70 l-60 -52 -63 55
c-145 128 -172 156 -150 150 32 -8 66 23 197 184 115 141 132 173 104 201 -7
7 -8 12 -4 12 4 0 55 -39 113 -87z m4932 -178 c35 -49 34 -54 -4 -29 -32 21
-85 12 -122 -20 l-28 -24 61 -78 c33 -43 65 -79 72 -82 6 -2 14 9 18 24 6 25
4 37 -21 98 -6 14 -5 17 3 12 13 -8 142 -190 142 -201 0 -4 -14 5 -31 19 -20
17 -42 26 -66 26 -19 0 -33 -4 -31 -8 13 -33 116 -161 129 -161 9 -1 30 12 47
27 35 33 50 100 33 145 -18 48 -10 38 63 -74 l16 -26 -72 -51 c-40 -28 -99
-69 -131 -92 -40 -29 -54 -35 -45 -21 16 26 6 45 -122 211 -53 69 -105 138
-115 153 -16 25 -23 28 -49 23 -48 -10 -59 -31 -37 -75 28 -55 189 -303 214
-329 14 -15 30 -22 44 -19 37 7 26 -6 -34 -42 -32 -19 -67 -40 -78 -48 -20
-12 -21 -11 -17 21 3 29 -11 58 -97 198 -128 206 -124 202 -156 196 -40 -8
-29 5 38 45 34 20 74 46 90 59 55 45 232 167 243 167 6 1 25 -19 43 -44z
m-4504 -444 c-30 -129 -53 -242 -50 -252 9 -26 3 -25 -78 24 -66 38 -70 42
-44 45 30 4 40 20 51 87 l7 40 -54 29 -54 29 -36 -27 c-38 -29 -48 -61 -25
-84 25 -25 -1 -22 -46 5 -50 30 -58 43 -25 43 20 0 113 71 304 233 55 47 101
80 103 74 1 -7 -22 -117 -53 -246z m4096 135 c17 -32 28 -60 25 -63 -2 -3 -9
4 -15 15 -14 27 -72 62 -102 62 -42 0 -87 -35 -98 -78 -25 -91 78 -300 171
-348 59 -31 143 17 154 87 8 50 28 39 21 -13 -10 -73 -61 -117 -155 -133 -79
-13 -186 64 -239 173 -22 45 -26 66 -25 138 1 74 4 91 26 124 29 44 96 80 149
80 32 0 37 3 37 23 0 27 7 18 51 -67z m-3714 -36 c15 -6 45 -29 65 -53 34 -37
40 -41 58 -29 33 21 33 14 -7 -59 l-38 -71 -6 63 c-5 51 -11 67 -33 86 -33 28
-74 29 -125 3 -42 -21 -66 -54 -120 -165 -64 -130 -51 -217 35 -245 30 -10 42
-9 75 5 50 23 62 13 18 -15 -27 -17 -46 -20 -92 -17 -98 6 -145 62 -155 183
-4 57 -1 71 27 128 38 78 99 141 166 172 55 26 89 29 132 14z m3368 -135 l26
-59 -46 43 c-43 40 -50 43 -87 38 -46 -6 -58 -19 -58 -63 0 -44 33 -69 125
-94 144 -39 188 -79 188 -174 -1 -28 -6 -63 -12 -78 -15 -38 -67 -68 -118 -68
-24 0 -43 -4 -43 -10 0 -5 -4 -10 -9 -10 -8 0 -61 109 -61 125 0 4 20 -11 45
-34 45 -42 59 -46 113 -35 40 8 55 47 37 91 -17 39 -46 58 -110 73 -27 7 -73
21 -101 32 -47 17 -54 25 -73 70 -12 28 -21 71 -21 96 0 39 5 49 37 79 33 32
41 35 79 29 26 -3 46 -1 50 5 8 14 9 12 39 -56z m-3050 -72 c-18 -191 -26
-432 -16 -451 6 -11 11 -25 11 -31 0 -10 -122 27 -157 48 -15 9 -13 10 13 11
31 0 32 1 38 61 4 34 4 65 -1 69 -4 4 -33 15 -63 23 -49 15 -56 15 -72 0 -9
-8 -22 -31 -29 -50 -9 -29 -8 -37 8 -55 15 -18 16 -20 2 -15 -10 3 -35 11 -58
18 -44 13 -52 24 -22 34 25 8 94 83 226 247 61 76 113 137 117 138 4 0 5 -21
3 -47z m280 -44 c115 -38 132 -50 161 -112 21 -45 23 -61 17 -122 -7 -80 -30
-141 -74 -197 -43 -54 -76 -68 -157 -68 -66 0 -185 30 -207 53 -7 7 -4 8 8 4
44 -16 49 -7 113 228 62 227 59 209 32 235 -20 20 -21 22 -3 16 11 -4 60 -21
110 -37z m2317 -51 c10 -34 16 -64 14 -65 -1 -2 -14 14 -27 35 -24 37 -25 37
-92 36 -37 0 -69 -3 -71 -5 -10 -10 56 -199 69 -199 7 0 23 12 35 27 16 21 20
36 16 63 -3 19 13 -19 35 -85 42 -128 48 -158 22 -110 -25 49 -55 75 -83 75
-15 0 -29 -2 -32 -5 -7 -7 50 -185 64 -203 6 -7 19 -10 29 -7 11 4 19 2 19 -3
0 -5 -38 -19 -85 -31 -101 -25 -106 -26 -77 -5 25 17 27 8 -25 194 -71 258
-72 259 -106 268 -27 7 -19 11 79 36 60 15 120 32 134 36 57 19 65 14 82 -52z
m-1917 -39 c71 -11 131 -21 132 -23 2 -1 -3 -28 -9 -59 -12 -58 -28 -77 -28
-33 0 13 -8 33 -17 45 -19 22 -109 55 -117 43 -10 -16 -37 -184 -32 -198 10
-27 53 5 76 58 12 28 23 48 26 45 6 -5 -34 -224 -46 -252 -7 -15 -9 -8 -9 26
-1 49 -29 98 -48 86 -15 -10 -45 -138 -41 -178 3 -31 6 -34 37 -37 68 -7 100
6 134 54 17 25 33 41 35 36 1 -5 -8 -38 -21 -73 -28 -74 -6 -70 -202 -38 -66
10 -123 19 -127 19 -5 0 -8 5 -8 10 0 6 8 10 19 10 10 0 23 6 28 13 5 6 24 95
43 197 18 102 38 196 44 209 9 20 6 27 -18 48 -27 23 -27 24 -5 19 13 -3 82
-15 154 -27z m1510 -8 c50 -22 90 -68 124 -141 21 -45 25 -70 25 -136 0 -97
-26 -158 -87 -208 -33 -27 -47 -31 -96 -31 -83 0 -130 34 -178 132 -33 68 -37
82 -37 156 0 66 5 93 26 137 28 63 43 77 95 96 51 18 81 17 128 -5z m-1249
-37 l31 -4 33 -148 c18 -81 36 -155 40 -166 4 -13 25 30 69 144 l64 162 51 -6
c28 -3 94 -6 146 -6 69 -1 90 -3 78 -11 -10 -5 -18 -17 -18 -26 0 -19 90 -223
99 -223 8 0 80 183 84 212 1 15 -5 26 -20 33 -38 16 -26 25 32 25 30 0 55 -2
55 -4 0 -2 -9 -15 -21 -28 -11 -12 -42 -79 -70 -148 -48 -123 -49 -127 -47
-220 l3 -95 28 -3 c15 -2 27 -8 27 -13 0 -5 -47 -9 -107 -9 -58 0 -103 3 -99
8 8 7 13 8 41 11 12 1 15 18 15 90 0 86 -1 91 -55 207 -72 155 -78 167 -90
171 -32 10 -40 -27 -66 -316 l-12 -135 29 -24 c29 -24 29 -24 4 -19 -14 3 -55
9 -92 12 -67 7 -90 21 -45 27 20 3 22 10 29 93 3 50 11 141 18 204 6 62 9 115
7 117 -2 2 -16 -26 -31 -64 -106 -258 -150 -353 -157 -340 -4 7 -26 106 -50
221 -23 114 -46 204 -49 200 -4 -5 -15 -89 -24 -188 -18 -190 -15 -229 21
-238 10 -3 2 -5 -17 -5 -38 0 -106 15 -77 17 10 0 24 15 31 34 13 31 34 225
39 360 2 62 0 70 -23 87 l-25 19 45 -5 c25 -3 59 -7 76 -10z"/>
<path d="M7400 9216 c-9 -29 -8 -39 6 -61 16 -24 16 -29 1 -61 -9 -19 -20 -34
-25 -34 -11 0 -56 -80 -48 -87 3 -3 17 2 30 11 14 9 32 16 40 16 18 0 22 14
36 125 11 94 9 119 -12 123 -11 2 -20 -9 -28 -32z"/>
<path d="M4895 8730 c-3 -5 -14 -10 -23 -10 -29 -1 -132 -175 -132 -222 0 -21
6 -29 25 -34 27 -7 79 -2 108 11 12 5 17 3 17 -10 0 -22 50 -75 72 -75 9 0 30
-19 48 -42 29 -39 31 -47 25 -95 -6 -47 -4 -53 12 -53 28 0 52 49 40 83 -5 15
-6 35 -2 45 4 9 9 25 10 34 2 25 7 28 49 35 36 6 36 6 36 -31 0 -21 -7 -44
-15 -52 -24 -25 -17 -68 20 -124 42 -62 43 -74 9 -97 -50 -34 -104 -98 -102
-118 6 -43 171 -6 198 45 6 11 16 20 23 20 7 0 33 22 59 48 l48 48 -20 39
c-11 22 -20 45 -20 51 0 7 -6 14 -14 17 -8 3 -20 18 -28 34 -33 62 -54 93 -64
93 -6 0 -16 10 -22 23 -28 53 -126 216 -144 237 -7 9 -43 37 -79 63 -65 46
-119 61 -134 37z m126 -209 c20 -16 22 -23 14 -47 -9 -24 -17 -30 -48 -32 -39
-3 -44 2 -61 71 -6 26 -5 27 33 27 23 0 48 -8 62 -19z"/>
<path d="M4890 8365 c0 -9 5 -15 11 -13 6 2 11 8 11 13 0 5 -5 11 -11 13 -6 2
-11 -4 -11 -13z"/>
<path d="M4946 8289 c-8 -18 -12 -38 -9 -45 6 -15 32 -26 44 -18 15 9 10 64
-6 81 -14 13 -17 11 -29 -18z"/>
<path d="M4906 8171 c-9 -14 5 -42 18 -38 18 6 20 47 2 47 -8 0 -17 -4 -20 -9z"/>
<path d="M5106 8172 c-11 -19 -18 -92 -9 -92 24 0 45 39 38 69 -6 30 -19 40
-29 23z"/>
<path d="M6878 8215 c-287 -31 -598 -110 -873 -222 -949 -385 -1671 -1203
-1931 -2188 -79 -303 -109 -565 -101 -900 12 -482 100 -862 301 -1295 163
-352 367 -641 651 -925 449 -451 984 -744 1610 -884 237 -54 429 -74 690 -74
127 0 277 5 335 12 674 76 1241 306 1745 708 138 109 397 367 501 498 468 590
714 1285 714 2020 0 308 -31 564 -100 829 -345 1327 -1508 2306 -2880 2426
-155 13 -518 11 -662 -5z m757 -69 c682 -89 1272 -358 1771 -808 494 -446 836
-1028 977 -1668 131 -590 88 -1230 -119 -1787 -207 -557 -551 -1028 -1036
-1416 -106 -84 -362 -247 -503 -319 -342 -173 -685 -281 -1070 -334 -187 -25
-559 -30 -746 -9 -406 45 -729 139 -1094 320 -210 104 -314 166 -485 293 -405
300 -724 676 -949 1122 -177 349 -275 669 -328 1072 -21 160 -23 551 -5 703
52 414 150 744 323 1089 328 651 882 1183 1543 1479 359 162 663 239 1101 281
84 8 515 -5 620 -18z"/>
<path d="M7361 7897 l-454 -202 -108 -310 c-60 -170 -166 -472 -235 -670 -70
-198 -129 -363 -133 -368 -4 -4 -139 143 -299 327 l-291 334 -173 6 c-567 19
-814 24 -821 17 -7 -7 -20 -110 -77 -596 -11 -93 -24 -204 -30 -245 -20 -152
-61 -89 418 -637 510 -585 512 -586 507 -591 -4 -4 -123 -27 -550 -107 -165
-30 -307 -58 -315 -60 -8 -3 -98 -141 -200 -307 -102 -165 -218 -355 -258
-421 -41 -65 -70 -123 -65 -127 4 -4 185 -139 400 -299 l393 -290 202 39 c273
53 613 119 898 175 304 60 325 64 327 62 1 -1 -63 -189 -143 -417 -79 -228
-144 -420 -144 -426 0 -11 464 -852 479 -867 8 -8 42 5 381 153 129 56 298
129 375 162 77 33 143 63 147 67 4 4 93 247 198 541 105 294 212 595 238 667
26 73 49 133 52 132 3 0 136 -150 295 -333 l290 -333 155 -6 c85 -4 310 -10
500 -13 l345 -7 44 379 c23 208 49 430 57 493 l14 115 -23 25 c-13 14 -147
168 -298 341 -151 173 -354 407 -453 519 -152 175 -176 206 -160 213 11 4 132
28 269 53 496 91 607 113 615 121 5 5 123 196 264 424 l256 415 -23 20 c-59
52 -777 575 -789 575 -8 0 -93 -15 -189 -34 -96 -19 -293 -57 -439 -86 -146
-28 -381 -74 -523 -102 -142 -27 -261 -48 -264 -45 -3 3 61 195 141 427 80
231 146 423 146 426 0 11 -483 874 -489 873 -3 0 -210 -91 -460 -202z m-144
-1693 c71 -34 112 -121 92 -199 -40 -157 -252 -180 -327 -35 -42 82 -12 180
72 231 39 24 115 25 163 3z m990 -419 c72 -30 113 -93 113 -170 0 -79 -51
-144 -130 -165 -74 -20 -165 23 -199 93 -74 152 63 306 216 242z m-688 -137
c-7 -13 -19 -34 -29 -48 -9 -14 -26 -41 -38 -60 l-21 -36 269 -194 c148 -107
269 -198 270 -202 0 -4 -44 -4 -98 -1 l-98 6 -34 -299 c-18 -164 -36 -308 -40
-318 -5 -16 -13 -8 -41 42 -18 34 -37 62 -40 62 -4 0 -141 -57 -304 -126 -163
-69 -298 -125 -300 -122 -2 2 12 28 30 58 19 30 35 60 34 65 0 9 -51 48 -404
308 -66 49 -122 93 -123 98 -3 6 30 7 86 3 l89 -7 12 99 c6 55 22 206 36 338
13 131 26 240 28 243 3 2 23 -30 46 -72 23 -41 47 -75 54 -75 7 0 147 58 312
129 165 72 304 130 308 130 4 1 2 -9 -4 -21z m-1168 -61 c54 -37 79 -82 79
-145 0 -104 -65 -174 -163 -175 -192 -2 -255 243 -85 326 49 25 128 22 169 -6z
m1997 -904 c93 -69 107 -202 27 -271 -69 -61 -181 -68 -236 -16 -64 61 -79
195 -28 250 58 64 176 82 237 37z m-1900 -174 c45 -22 86 -73 98 -122 19 -78
-55 -189 -134 -201 -161 -25 -270 129 -189 266 45 77 135 100 225 57z m991
-450 c134 -75 113 -271 -35 -319 -83 -28 -188 25 -215 107 -27 83 13 187 85
219 47 20 122 17 165 -7z"/>
<path d="M7137 5296 c-58 -21 -114 -62 -148 -109 -50 -69 -62 -105 -63 -192 0
-66 4 -90 26 -136 32 -69 88 -127 154 -160 70 -35 198 -35 268 0 66 33 122 91
154 160 37 78 38 194 2 264 -37 74 -84 123 -152 156 -51 26 -72 31 -132 31
-39 -1 -88 -7 -109 -14z"/>
<path d="M3396 6844 c-19 -48 1 -96 48 -113 34 -14 44 6 25 52 -29 71 -59 97
-73 61z"/>
<path d="M5052 1649 c-34 -27 -62 -54 -62 -59 0 -8 90 -64 94 -58 5 6 36 161
33 164 -2 2 -31 -19 -65 -47z"/>
<path d="M5740 1299 c-30 -39 -49 -74 -44 -78 11 -10 84 -34 88 -29 4 4 14
178 10 178 -1 0 -26 -32 -54 -71z"/>
<path d="M6107 1182 c-31 -109 -57 -207 -57 -220 0 -28 39 -39 77 -20 72 34
158 294 124 376 -11 26 -56 62 -78 62 -5 0 -34 -89 -66 -198z"/>
<path d="M7957 1288 c-22 -18 -47 -80 -47 -120 0 -53 36 -209 60 -266 28 -65
66 -90 107 -70 45 22 55 52 49 158 -7 137 -36 237 -80 278 -38 34 -62 40 -89
20z"/>
</g>
</svg>
